<svg xmlns="http://www.w3.org/2000/svg" viewBox="0 0 360 180">
  <rect width="360" height="180" fill="#0b1220"/>
  <g fill="#8fb8ff" opacity="0.85">
    <path d="M30 72l8-10 18-6 20 2 18 8 8 10-6 10-20 10-10 16-18 6-10-8-10-14z"/>
    <path d="M122 92l14-10 14-4 10 10-4 14-12 8-16-6z"/>
    <path d="M150 30l18-10 18 6 8 14-10 16-20 8-18-10z"/>
    <path d="M168 66l18-6 18 6 10 16-14 14-22 4-14-12z"/>
    <path d="M196 110l18-8 16 6 10 14-8 18-18 10-16-6-8-18z"/>
    <path d="M220 60l16-10 20-2 18 8 10 16-8 18-20 8-18-10-8-18z"/>
    <path d="M250 96l18-6 16 6 10 14-6 18-18 10-18-8-6-18z"/>
    <path d="M262 132l16-6 18 8 10 14-6 14-18 8-18-6-8-14z"/>
    <path d="M266 24l18-8 22 2 18 10 6 16-10 14-22 6-20-8-12-14z"/>
    <path d="M300 78l18-6 18 8 8 12-6 14-18 8-18-8-8-14z"/>
    <path d="M280 150l18-6 20 4 14 10-8 12-22 6-20-8z"/>
    <path d="M78 124l14-8 16 4 8 12-6 14-16 8-14-10-4-14z"/>
    <path d="M56 106l14-8 16 4 8 12-6 14-16 8-14-10-4-14z"/>
  </g>
  <g fill="none" stroke="#20324b" stroke-width="0.5" opacity="0.5">
    <path d="M0 90H360"/>
    <path d="M180 0V180"/>
    <path d="M0 45H360"/>
    <path d="M0 135H360"/>
    <path d="M90 0V180"/>
    <path d="M270 0V180"/>
  </g>
</svg>
